# xmcd
#
# Track frame offsets:
#	183
#	28310
#	53348
#	80695
#	108788
#	135818
#	170850
#	189015
#	214540
#	238723
#	263218
#	286578
#
# Disc length: 4186 seconds
#
# Revision: 0
# Processed by: cddbd v1.5.2PL0 Copyright (c) Steve Scherf et al.
# Submitted via: EasyCDDAExtractor 16.0.8.1
#
DISCID=9610580c
DTITLE=Varios Artistas - Techno Rave
DYEAR=1992
DGENRE=Dance
TTITLE0=Double you? - Please don't go (Club mix)
TTITLE1=Opus III - It's a fine day (Extended version)
TTITLE2=Phenomenia - Who is Elvis? (Original mix)
TTITLE3=Seydinah - A la folié (Club mix)
TTITLE4=Willy Morales - Last train to London (Piano mix)
TTITLE5=Dr. Alban - It's my life (Extended version)
TTITLE6=Gypsymen - Hear the music (Club mix)
TTITLE7=Mitsou - Dis-moi-dis-moi (Remix)
TTITLE8=Men whithout hats - Safety dance (UK Remix)
TTITLE9=Rosalla - Love breakdown (Breakdown mix)
TTITLE10=Masterblaster - This is in (Dance mix)
TTITLE11=Mungo Jerry - In the summertime (Dance mix)
EXTD=
EXTT0=
EXTT1=
EXTT2=
EXTT3=
EXTT4=
EXTT5=
EXTT6=
EXTT7=
EXTT8=
EXTT9=
EXTT10=
EXTT11=
PLAYORDER=
